<svg width="198" height="48" fill="none" xmlns="http://www.w3.org/2000/svg"><path fill-rule="evenodd" clip-rule="evenodd" d="M169.684 7.64596h7.722V21.706c0 3.5257 2.875 6.3717 6.436 6.3717s6.435-2.846 6.435-6.3717V7.64596H198V34.6617h-.006c-.209 8.2406-6.487 13.3379-14.152 13.3379v-7.6459c3.561 0 6.435-2.3363 6.435-6.1168v-.0461c-1.931.9798-4.119 1.5328-6.435 1.5328-7.737 0-14.042-6.1718-14.157-13.8052h-.001V7.64596zM78.0416 35.6812v-17.076c0-6.9663-4.2474-11.55392-10.7259-11.55392-4.0329 0-6.6071 1.44423-8.1946 3.69552-1.5874-2.33624-4.0329-3.69552-7.3794-3.69552-3.7755 0-6.2639 1.44423-7.551 3.35572V7.64596h-8.452V35.6812h8.4091V20.0069c0-3.3132 1.5874-5.2672 4.419-5.2672 2.703 0 4.0759 1.7841 4.0759 4.5876l.0429 16.3539h8.452l-.0429-15.6743c0-3.3132 1.5874-5.2672 4.4191-5.2672 2.7029 0 4.0758 1.7841 4.0758 4.5876v16.3539h8.452zm51.6564.8495c6.092 0 11.755-2.761 11.755-9.1751 0-6.6357-5.727-8.1278-9.818-9.1936-2.272-.5921-4.04-1.0526-4.04-2.1904 0-1.0195.901-1.5717 2.36-1.5717 1.845 0 3.003 1.0195 3.775 2.4637l7.208-3.8655c-2.359-3.95038-6.435-5.94682-10.983-5.9893-5.878 0-11.069 3.1009-11.069 9.1752 0 6.2005 5.534 7.7294 9.767 8.8987 2.297.6345 4.091 1.13 4.091 2.2304 0 1.1469-1.03 1.7416-3.046 1.7416-2.489 0-4.076-1.1894-4.806-3.3133l-7.336 4.1203c2.231 4.5451 6.521 6.669 12.142 6.669zm28.831-10.7893v-9.8973h5.792V7.64596h-5.792V0l-8.495 2.50618v5.13978h-4.505v8.24064h4.505v9.8973c0 7.8159 3.218 11.0866 14.287 9.9822v-7.6035c-3.69.2124-5.792 0-5.792-2.4212zM104.041 7.64596h8.581V35.6812h-8.581v-1.713c-2.014 1.0919-4.3243 1.713-6.7786 1.713-7.8084 0-14.1582-6.2867-14.1582-14.0176 0-7.731 6.3498-14.01764 14.1582-14.01764 2.4543 0 4.7646.6211 6.7786 1.71291V7.64596zM97.2624 28.2476c-3.6897 0-6.65-2.931-6.65-6.584 0-3.6531 2.9603-6.5841 6.65-6.5841 3.6896 0 6.6496 2.931 6.6496 6.5841 0 3.653-3.003 6.584-6.6496 6.584zM29.6035 7.64596h-8.5807v1.74448c-2.0328-1.1114-4.3731-1.74448-6.8646-1.74448C6.34973 7.64596 0 13.9326 0 21.6636c0 7.7309 6.34973 14.0176 14.1582 14.0176 2.4892 0 4.8302-.6389 6.8646-1.7599v1.7599h8.5807V7.64596zM7.50813 21.6636c0 3.653 3.00327 6.584 6.65007 6.584 3.6897 0 6.65-2.931 6.65-6.584 0-3.6531-2.9603-6.5841-6.65-6.5841-3.6468 0-6.65007 2.931-6.65007 6.5841z" fill="#fff"/><path d="M30.3158 40.4709H0v7.5294h30.3158v-7.5294z" fill="#FF6621"/></svg>